<?xml version="1.0" encoding="utf-8"?>
<svg version="1.1" xmlns:xlink="http://www.w3.org/1999/xlink" width="16px" height="17px" xmlns="http://www.w3.org/2000/svg">
  <g transform="matrix(1 0 0 1 -339 -621 )">
    <path d="M 15.5978260869565 7.51797175866495  C 15.8659420289855 7.77257167308515  16 8.09991442019683  16 8.5  C 16 8.89281129653402  15.8659420289855 9.22379118528027  15.5978260869565 9.49293966623877  L 8.52173913043478 16.5962772785623  C 8.23913043478261 16.8654257595208  7.90942028985507 17  7.53260869565217 17  C 7.16304347826087 17  6.83695652173913 16.8654257595208  6.55434782608696 16.5962772785623  L 5.73913043478261 15.7779204107831  C 5.46376811594203 15.5014976465554  5.32608695652174 15.1705177578092  5.32608695652174 14.7849807445443  C 5.32608695652174 14.3994437312794  5.46376811594203 14.0684638425332  5.73913043478261 13.7920410783055  L 8.92391304347826 10.5949935815148  L 1.27173913043478 10.5949935815148  C 0.894927536231884 10.5949935815148  0.588768115942029 10.4586007702182  0.353260869565217 10.1858151476252  C 0.117753623188406 9.91302952503209  0 9.58386820710312  0 9.19833119383826  L 0 7.80166880616175  C 0 7.41613179289688  0.117753623188406 7.08697047496791  0.353260869565217 6.81418485237484  C 0.588768115942029 6.54139922978177  0.894927536231884 6.40500641848524  1.27173913043478 6.40500641848524  L 8.92391304347826 6.40500641848524  L 5.73913043478261 3.19704749679076  C 5.46376811594203 2.93517329910141  5.32608695652174 2.60783055198973  5.32608695652174 2.21501925545571  C 5.32608695652174 1.8222079589217  5.46376811594203 1.49486521181001  5.73913043478261 1.23299101412067  L 6.55434782608696 0.414634146341464  C 6.82971014492754 0.13821138211382  7.15579710144928 0  7.53260869565217 0  C 7.91666666666667 0  8.2463768115942 0.13821138211382  8.52173913043478 0.414634146341464  L 15.5978260869565 7.51797175866495  Z " fill-rule="nonzero" fill="#000000" stroke="none" transform="matrix(1 0 0 1 339 621 )" />
  </g>
</svg>