<?xml version="1.0" encoding="utf-8"?>
<svg version="1.1" xmlns:xlink="http://www.w3.org/1999/xlink" width="24px" height="14px" xmlns="http://www.w3.org/2000/svg">
  <g transform="matrix(1 0 0 1 -67 -92 )">
    <path d="M 3.30803571428571 11.7486979166667  C 3.38839285714286 11.8033854166667  3.42857142857143 11.8732638888889  3.42857142857143 11.9583333333333  L 3.42857142857143 13.7083333333333  C 3.42857142857143 13.7934027777778  3.38839285714286 13.86328125  3.30803571428571 13.91796875  C 3.22767857142857 13.97265625  3.125 14  3 14  L 0.428571428571429 14  C 0.303571428571429 14  0.200892857142857 13.97265625  0.120535714285714 13.91796875  C 0.0401785714285714 13.86328125  0 13.7934027777778  0 13.7083333333333  L 0 11.9583333333333  C 0 11.8732638888889  0.0401785714285714 11.8033854166667  0.120535714285714 11.7486979166667  C 0.200892857142857 11.6940104166667  0.303571428571429 11.6666666666667  0.428571428571429 11.6666666666667  L 3 11.6666666666667  C 3.125 11.6666666666667  3.22767857142857 11.6940104166667  3.30803571428571 11.7486979166667  Z M 8.45089285714286 10.58203125  C 8.53125 10.63671875  8.57142857142857 10.7065972222222  8.57142857142857 10.7916666666667  L 8.57142857142857 13.7083333333333  C 8.57142857142857 13.7934027777778  8.53125 13.86328125  8.45089285714286 13.91796875  C 8.37053571428572 13.97265625  8.26785714285714 14  8.14285714285714 14  L 5.57142857142857 14  C 5.44642857142857 14  5.34375 13.97265625  5.26339285714286 13.91796875  C 5.18303571428571 13.86328125  5.14285714285714 13.7934027777778  5.14285714285714 13.7083333333333  L 5.14285714285714 10.7916666666667  C 5.14285714285714 10.7065972222222  5.18303571428571 10.63671875  5.26339285714286 10.58203125  C 5.34375 10.52734375  5.44642857142857 10.5  5.57142857142857 10.5  L 8.14285714285714 10.5  C 8.26785714285714 10.5  8.37053571428572 10.52734375  8.45089285714286 10.58203125  Z M 13.59375 8.24869791666667  C 13.6741071428571 8.30338541666667  13.7142857142857 8.37326388888889  13.7142857142857 8.45833333333333  L 13.7142857142857 13.7083333333333  C 13.7142857142857 13.7934027777778  13.6741071428571 13.86328125  13.59375 13.91796875  C 13.5133928571429 13.97265625  13.4107142857143 14  13.2857142857143 14  L 10.7142857142857 14  C 10.5892857142857 14  10.4866071428571 13.97265625  10.40625 13.91796875  C 10.3258928571429 13.86328125  10.2857142857143 13.7934027777778  10.2857142857143 13.7083333333333  L 10.2857142857143 8.45833333333333  C 10.2857142857143 8.37326388888889  10.3258928571429 8.30338541666667  10.40625 8.24869791666667  C 10.4866071428571 8.19401041666667  10.5892857142857 8.16666666666667  10.7142857142857 8.16666666666667  L 13.2857142857143 8.16666666666667  C 13.4107142857143 8.16666666666667  13.5133928571429 8.19401041666667  13.59375 8.24869791666667  Z M 18.7366071428571 4.74869791666667  C 18.8169642857143 4.80338541666667  18.8571428571429 4.87326388888889  18.8571428571429 4.95833333333333  L 18.8571428571429 13.7083333333333  C 18.8571428571429 13.7934027777778  18.8169642857143 13.86328125  18.7366071428571 13.91796875  C 18.65625 13.97265625  18.5535714285714 14  18.4285714285714 14  L 15.8571428571429 14  C 15.7321428571429 14  15.6294642857143 13.97265625  15.5491071428571 13.91796875  C 15.46875 13.86328125  15.4285714285714 13.7934027777778  15.4285714285714 13.7083333333333  L 15.4285714285714 4.95833333333333  C 15.4285714285714 4.87326388888889  15.46875 4.80338541666667  15.5491071428571 4.74869791666667  C 15.6294642857143 4.69401041666667  15.7321428571429 4.66666666666667  15.8571428571429 4.66666666666667  L 18.4285714285714 4.66666666666667  C 18.5535714285714 4.66666666666667  18.65625 4.69401041666667  18.7366071428571 4.74869791666667  Z M 23.8794642857143 0.08203125  C 23.9598214285714 0.13671875  24 0.20659722222222  24 0.291666666666667  L 24 13.7083333333333  C 24 13.7934027777778  23.9598214285714 13.86328125  23.8794642857143 13.91796875  C 23.7991071428571 13.97265625  23.6964285714286 14  23.5714285714286 14  L 21 14  C 20.875 14  20.7723214285714 13.97265625  20.6919642857143 13.91796875  C 20.6116071428571 13.86328125  20.5714285714286 13.7934027777778  20.5714285714286 13.7083333333333  L 20.5714285714286 0.291666666666667  C 20.5714285714286 0.20659722222222  20.6116071428571 0.13671875  20.6919642857143 0.08203125  C 20.7723214285714 0.02734375  20.875 0  21 0  L 23.5714285714286 0  C 23.6964285714286 0  23.7991071428571 0.02734375  23.8794642857143 0.08203125  Z " fill-rule="nonzero" fill="#000000" stroke="none" transform="matrix(1 0 0 1 67 92 )" />
  </g>
</svg>