<?xml version="1.0" encoding="utf-8"?>
<svg version="1.1" xmlns:xlink="http://www.w3.org/1999/xlink" width="29px" height="32px" xmlns="http://www.w3.org/2000/svg">
  <g transform="matrix(1 0 0 1 -370 -120 )">
    <path d="M 2.23076923076923 24.5714285714286  L 2.23076923076923 29.7142857142857  L 7.25 29.7142857142857  L 7.25 24.5714285714286  L 2.23076923076923 24.5714285714286  Z M 8.36538461538461 24.5714285714286  L 8.36538461538461 29.7142857142857  L 13.9423076923077 29.7142857142857  L 13.9423076923077 24.5714285714286  L 8.36538461538461 24.5714285714286  Z M 2.23076923076923 17.7142857142857  L 2.23076923076923 23.4285714285714  L 7.25 23.4285714285714  L 7.25 17.7142857142857  L 2.23076923076923 17.7142857142857  Z M 8.36538461538461 17.7142857142857  L 8.36538461538461 23.4285714285714  L 13.9423076923077 23.4285714285714  L 13.9423076923077 17.7142857142857  L 8.36538461538461 17.7142857142857  Z M 2.23076923076923 11.4285714285714  L 2.23076923076923 16.5714285714286  L 7.25 16.5714285714286  L 7.25 11.4285714285714  L 2.23076923076923 11.4285714285714  Z M 15.0576923076923 24.5714285714286  L 15.0576923076923 29.7142857142857  L 20.6346153846154 29.7142857142857  L 20.6346153846154 24.5714285714286  L 15.0576923076923 24.5714285714286  Z M 8.36538461538461 11.4285714285714  L 8.36538461538461 16.5714285714286  L 13.9423076923077 16.5714285714286  L 13.9423076923077 11.4285714285714  L 8.36538461538461 11.4285714285714  Z M 21.75 24.5714285714286  L 21.75 29.7142857142857  L 26.7692307692308 29.7142857142857  L 26.7692307692308 24.5714285714286  L 21.75 24.5714285714286  Z M 15.0576923076923 17.7142857142857  L 15.0576923076923 23.4285714285714  L 20.6346153846154 23.4285714285714  L 20.6346153846154 17.7142857142857  L 15.0576923076923 17.7142857142857  Z M 8.75751201923077 8.40178571428572  C 8.86788862179487 8.28869047619047  8.92307692307692 8.1547619047619  8.92307692307692 8  L 8.92307692307692 2.85714285714286  C 8.92307692307692 2.70238095238095  8.86788862179487 2.56845238095238  8.75751201923077 2.45535714285714  C 8.64713541666667 2.3422619047619  8.51642628205128 2.28571428571428  8.36538461538461 2.28571428571428  L 7.25 2.28571428571428  C 7.09895833333333 2.28571428571428  6.96824919871795 2.3422619047619  6.85787259615385 2.45535714285714  C 6.74749599358974 2.56845238095238  6.69230769230769 2.70238095238095  6.69230769230769 2.85714285714286  L 6.69230769230769 8  C 6.69230769230769 8.1547619047619  6.74749599358974 8.28869047619047  6.85787259615385 8.40178571428572  C 6.96824919871795 8.51488095238095  7.09895833333333 8.57142857142857  7.25 8.57142857142857  L 8.36538461538461 8.57142857142857  C 8.51642628205128 8.57142857142857  8.64713541666667 8.51488095238095  8.75751201923077 8.40178571428572  Z M 21.75 17.7142857142857  L 21.75 23.4285714285714  L 26.7692307692308 23.4285714285714  L 26.7692307692308 17.7142857142857  L 21.75 17.7142857142857  Z M 15.0576923076923 11.4285714285714  L 15.0576923076923 16.5714285714286  L 20.6346153846154 16.5714285714286  L 20.6346153846154 11.4285714285714  L 15.0576923076923 11.4285714285714  Z M 21.75 11.4285714285714  L 21.75 16.5714285714286  L 26.7692307692308 16.5714285714286  L 26.7692307692308 11.4285714285714  L 21.75 11.4285714285714  Z M 22.1421274038462 8.40178571428572  C 22.2525040064103 8.28869047619047  22.3076923076923 8.1547619047619  22.3076923076923 8  L 22.3076923076923 2.85714285714286  C 22.3076923076923 2.70238095238095  22.2525040064103 2.56845238095238  22.1421274038462 2.45535714285714  C 22.0317508012821 2.3422619047619  21.9010416666667 2.28571428571428  21.75 2.28571428571428  L 20.6346153846154 2.28571428571428  C 20.4835737179487 2.28571428571428  20.3528645833333 2.3422619047619  20.2424879807692 2.45535714285714  C 20.1321113782051 2.56845238095238  20.0769230769231 2.70238095238095  20.0769230769231 2.85714285714286  L 20.0769230769231 8  C 20.0769230769231 8.1547619047619  20.1321113782051 8.28869047619047  20.2424879807692 8.40178571428572  C 20.3528645833333 8.51488095238095  20.4835737179487 8.57142857142857  20.6346153846154 8.57142857142857  L 21.75 8.57142857142857  C 21.9010416666667 8.57142857142857  22.0317508012821 8.51488095238095  22.1421274038462 8.40178571428572  Z M 28.3377403846154 5.25  C 28.7792467948718 5.70238095238095  29 6.23809523809524  29 6.85714285714286  L 29 29.7142857142857  C 29 30.3333333333333  28.7792467948718 30.8690476190476  28.3377403846154 31.3214285714286  C 27.896233974359 31.7738095238095  27.3733974358974 32  26.7692307692308 32  L 2.23076923076923 32  C 1.62660256410256 32  1.10376602564103 31.7738095238095  0.662259615384615 31.3214285714286  C 0.220753205128205 30.8690476190476  0 30.3333333333333  0 29.7142857142857  L 0 6.85714285714286  C 0 6.23809523809524  0.220753205128205 5.70238095238095  0.662259615384615 5.25  C 1.10376602564103 4.79761904761904  1.62660256410256 4.57142857142857  2.23076923076923 4.57142857142857  L 4.46153846153846 4.57142857142857  L 4.46153846153846 2.85714285714286  C 4.46153846153846 2.07142857142857  4.73457532051282 1.39880952380952  5.28064903846154 0.839285714285715  C 5.82672275641026 0.279761904761905  6.48317307692308 0  7.25 0  L 8.36538461538461 0  C 9.13221153846154 0  9.78866185897436 0.279761904761905  10.3347355769231 0.839285714285715  C 10.8808092948718 1.39880952380952  11.1538461538462 2.07142857142857  11.1538461538462 2.85714285714286  L 11.1538461538462 4.57142857142857  L 17.8461538461538 4.57142857142857  L 17.8461538461538 2.85714285714286  C 17.8461538461538 2.07142857142857  18.1191907051282 1.39880952380952  18.6652644230769 0.839285714285715  C 19.2113381410256 0.279761904761905  19.8677884615385 0  20.6346153846154 0  L 21.75 0  C 22.5168269230769 0  23.1732772435897 0.279761904761905  23.7193509615385 0.839285714285715  C 24.2654246794872 1.39880952380952  24.5384615384615 2.07142857142857  24.5384615384615 2.85714285714286  L 24.5384615384615 4.57142857142857  L 26.7692307692308 4.57142857142857  C 27.3733974358974 4.57142857142857  27.896233974359 4.79761904761904  28.3377403846154 5.25  Z " fill-rule="nonzero" fill="#000000" stroke="none" transform="matrix(1 0 0 1 370 120 )" />
  </g>
</svg>