<?xml version="1.0" encoding="utf-8"?>
<svg version="1.1" xmlns:xlink="http://www.w3.org/1999/xlink" width="24px" height="14px" xmlns="http://www.w3.org/2000/svg">
  <g transform="matrix(1 0 0 1 -370 -91 )">
    <path d="M 2.66666666666667 3  L 20 3  L 20 11  L 2.66666666666667 11  L 2.66666666666667 3  Z M 21.3333333333333 12.25  L 21.3333333333333 9.1  L 22.6666666666667 9.1  L 22.6666666666667 4.9  L 21.3333333333333 4.9  L 21.3333333333333 1.75  C 21.3333333333333 1.64791666666666  21.3020833333333 1.5640625  21.2395833333333 1.4984375  C 21.1770833333333 1.4328125  21.0972222222222 1.4  21 1.4  L 1.66666666666667 1.4  C 1.56944444444444 1.4  1.48958333333333 1.4328125  1.42708333333333 1.4984375  C 1.36458333333333 1.5640625  1.33333333333333 1.64791666666666  1.33333333333333 1.75  L 1.33333333333333 12.25  C 1.33333333333333 12.3520833333333  1.36458333333333 12.4359375  1.42708333333333 12.5015625  C 1.48958333333333 12.5671875  1.56944444444444 12.6  1.66666666666667 12.6  L 21 12.6  C 21.0972222222222 12.6  21.1770833333333 12.5671875  21.2395833333333 12.5015625  C 21.3020833333333 12.4359375  21.3333333333333 12.3520833333333  21.3333333333333 12.25  Z M 23.609375 3.91015625  C 23.8697916666667 4.18359375  24 4.51354166666667  24 4.9  L 24 9.1  C 24 9.48645833333333  23.8697916666667 9.81640625  23.609375 10.08984375  C 23.3489583333333 10.36328125  23.0347222222222 10.5  22.6666666666667 10.5  L 22.6666666666667 12.25  C 22.6666666666667 12.73125  22.5034722222222 13.1432291666667  22.1770833333333 13.4859375  C 21.8506944444444 13.8286458333333  21.4583333333333 14  21 14  L 1.66666666666667 14  C 1.20833333333333 14  0.815972222222222 13.8286458333333  0.489583333333333 13.4859375  C 0.163194444444444 13.1432291666667  0 12.73125  0 12.25  L 0 1.75  C 0 1.26875  0.163194444444444 0.856770833333333  0.489583333333333 0.5140625  C 0.815972222222222 0.171354166666665  1.20833333333333 0  1.66666666666667 0  L 21 0  C 21.4583333333333 0  21.8506944444444 0.171354166666665  22.1770833333333 0.5140625  C 22.5034722222222 0.856770833333333  22.6666666666667 1.26875  22.6666666666667 1.75  L 22.6666666666667 3.5  C 23.0347222222222 3.5  23.3489583333333 3.63671875  23.609375 3.91015625  Z " fill-rule="nonzero" fill="#000000" stroke="none" transform="matrix(1 0 0 1 370 91 )" />
  </g>
</svg>