<?xml version="1.0" encoding="utf-8"?>
<svg version="1.1" xmlns:xlink="http://www.w3.org/1999/xlink" width="27px" height="27px" xmlns="http://www.w3.org/2000/svg">
  <defs>
    <filter x="162px" y="628px" width="27px" height="27px" filterUnits="userSpaceOnUse" id="filter94">
      <feOffset dx="2" dy="2" in="SourceAlpha" result="shadowOffsetInner" />
      <feGaussianBlur stdDeviation="2.5" in="shadowOffsetInner" result="shadowGaussian" />
      <feComposite in2="shadowGaussian" operator="atop" in="SourceAlpha" result="shadowComposite" />
      <feColorMatrix type="matrix" values="0 0 0 0 0  0 0 0 0 0  0 0 0 0 0  0 0 0 0.349019607843137 0  " in="shadowComposite" />
    </filter>
    <g id="widget95">
      <path d="M 173.5 631  C 178.26 631  182 634.74  182 639.5  C 182 644.26  178.26 648  173.5 648  C 168.74 648  165 644.26  165 639.5  C 165 634.74  168.74 631  173.5 631  Z " fill-rule="nonzero" fill="#ffffff" stroke="none" />
      <path d="M 173.5 631.5  C 177.98 631.5  181.5 635.02  181.5 639.5  C 181.5 643.98  177.98 647.5  173.5 647.5  C 169.02 647.5  165.5 643.98  165.5 639.5  C 165.5 635.02  169.02 631.5  173.5 631.5  Z " stroke-width="1" stroke="#427b93" fill="none" />
    </g>
  </defs>
  <g transform="matrix(1 0 0 1 -162 -628 )">
    <use xlink:href="#widget95" filter="url(#filter94)" />
    <use xlink:href="#widget95" />
  </g>
</svg>