<?xml version="1.0" encoding="utf-8"?>
<svg version="1.1" xmlns:xlink="http://www.w3.org/1999/xlink" width="12px" height="12px" xmlns="http://www.w3.org/2000/svg">
  <g transform="matrix(1 0 0 1 -138 -185 )">
    <path d="M 11.9872249822569 0.455965909090909  C 12.0070972320795 0.572443181818181  11.9886444286728 0.68465909090909  11.9318665720369 0.792613636363636  L 6.48119233498935 11.7017045454545  C 6.3846699787083 11.9005681818182  6.22285308729595 12  5.99574166075231 12  C 5.96735273243435 12  5.92476933995742 11.9943181818182  5.8679914833215 11.9829545454545  C 5.7430801987225 11.9545454545455  5.64229950319375 11.890625  5.56564939673527 11.7911931818182  C 5.48899929027679 11.6917613636364  5.45067423704755 11.5795454545455  5.45067423704755 11.4545454545455  L 5.45067423704755 6.54545454545454  L 0.545067423704755 6.54545454545454  C 0.420156139105749 6.54545454545454  0.308019872249823 6.50710227272727  0.208658623136977 6.43039772727273  C 0.109297374024131 6.35369318181818  0.0454222853087296 6.25284090909091  0.0170333569907736 6.12784090909091  C -0.0113555713271824 6.00284090909091  0 5.88352272727273  0.0511000709723208 5.76988636363636  C 0.102200141944642 5.65625  0.184528034066714 5.57102272727273  0.298083747338538 5.51420454545454  L 11.1994322214336 0.0596590909090913  C 11.2732434350603 0.0198863636363629  11.3555713271824 0  11.4464158977999 0  C 11.5997161107168 0  11.7274662881476 0.0539772727272716  11.8296664300923 0.161931818181819  C 11.9148332150461 0.241477272727272  11.9673527324344 0.339488636363635  11.9872249822569 0.455965909090909  Z " fill-rule="nonzero" fill="#ad29c8" stroke="none" transform="matrix(1 0 0 1 138 185 )" />
  </g>
</svg>